<svg width="94" height="27" viewBox="0 0 94 27" fill="none" xmlns="http://www.w3.org/2000/svg">
<path d="M15.42 12.42C15.42 12.24 15.38 12.02 15.02 12.02H9.1C8.92 12.02 8.7 12.06 8.7 12.42V14.46C8.7 14.82 8.92 14.86 9.1 14.86H10.72C10.42 15.42 9.8 16.2 8.46 16.18C6.98 16.16 5.62 15 5.62 13C5.62 11.06 6.94 9.82 8.44 9.82C9.16 9.82 10.2 10.12 10.84 11.3C10.92 11.44 11 11.6 11.32 11.42L14.8 9.48C14.92 9.42 15.18 9.28 14.88 8.84C14.34 8.04 13.54 7.34 12.76 6.84C11.52 6.06 10.14 5.7 8.52 5.7C5.5 5.7 3.64 6.96 2.58 8.16C1.86 8.98 0.84 10.54 0.82 13C0.8 15.34 1.66 17.06 2.66 18.16C3.8 19.42 5.52 20.32 7.68 20.3C9.5 20.28 10.72 19.66 11.62 18.92V19.6C11.62 19.78 11.66 20 12.02 20H15.02C15.38 20 15.42 19.78 15.42 19.6V12.42ZM21.3728 10.2V19.6C21.3728 19.78 21.4128 20 21.7728 20H25.7728C25.9528 20 26.1728 19.96 26.1728 19.6V10.2H30.6128C30.9728 10.2 31.0128 9.98 31.0128 9.8V6.4C31.0128 6.22 30.9728 6 30.6128 6H16.9328C16.7528 6 16.5328 6.04 16.5328 6.4V9.8C16.5328 10.16 16.7528 10.2 16.9328 10.2H21.3728ZM38.6191 11.96L39.0791 14.92H35.9791L36.4391 11.96H38.6191ZM35.4191 18.56H39.6391L39.7791 19.44C39.8391 19.76 40.0191 20 40.3791 20H43.8591C43.9591 20 44.1391 19.98 44.1991 19.8C44.2391 19.68 44.1991 19.52 44.1991 19.48L42.0191 8.7C41.9791 8.52 41.8991 8.16 41.3991 8.16H33.6591C33.1591 8.16 33.0791 8.52 33.0391 8.7L30.8591 19.48C30.8591 19.52 30.8191 19.68 30.8591 19.8C30.9191 19.98 31.0991 20 31.1991 20H34.6791C35.0391 20 35.2191 19.76 35.2791 19.44L35.4191 18.56ZM50.8195 14.72L56.1795 19.6C56.3795 19.78 56.5995 20 57.1395 20H59.9795C60.3395 20 60.3795 19.78 60.3795 19.6V8.56C60.3795 8.38 60.3395 8.16 59.9795 8.16H56.3795C56.0195 8.16 55.9795 8.38 55.9795 8.56V13.44L50.6195 8.56C50.4195 8.38 50.1995 8.16 49.6595 8.16H46.8195C46.6395 8.16 46.4195 8.2 46.4195 8.56V19.6C46.4195 19.96 46.6395 20 46.8195 20H50.4195C50.5995 20 50.8195 19.96 50.8195 19.6V14.72ZM67.5773 16.04H70.2373L72.7773 19.52C73.0773 19.92 73.4373 20 73.7973 20H77.8573C78.0573 20 78.1373 19.76 78.0173 19.6L73.3573 13.6L77.8973 8.56C78.0173 8.42 77.9373 8.16 77.7773 8.16H73.6773C73.0773 8.16 72.8773 8.4 72.6573 8.64L69.6773 12.12H67.5773V8.56C67.5773 8.38 67.5373 8.16 67.1773 8.16H63.5773C63.3973 8.16 63.1773 8.2 63.1773 8.56V19.6C63.1773 19.96 63.3973 20 63.5773 20H67.1773C67.3573 20 67.5773 19.96 67.5773 19.6V16.04ZM84.2269 12.64C83.8469 12.64 83.6069 12.34 83.6069 12.04C83.6069 11.74 83.8469 11.44 84.2269 11.44H87.4469C87.8669 11.44 87.9469 11.78 87.9869 11.9C88.0269 12.06 88.0869 12.2 88.3869 12.2H92.0869C92.4469 12.2 92.4869 11.98 92.4869 11.8V11.52C92.4869 9.72 90.9269 8.16 89.1069 8.16H82.7269C81.1269 8.16 80.0669 9.1 79.5469 10C78.8869 11.14 78.8869 12.54 79.5469 13.68C80.0669 14.58 81.1269 15.52 82.7269 15.52H87.5469C87.9269 15.52 88.1669 15.82 88.1669 16.12C88.1669 16.42 87.9269 16.72 87.5469 16.72H84.3269C83.9069 16.72 83.8269 16.38 83.7869 16.26C83.7469 16.1 83.6869 15.96 83.3869 15.96H79.6869C79.3269 15.96 79.2869 16.18 79.2869 16.36V16.64C79.2869 18.44 80.8469 20 82.6669 20H89.0469C90.6469 20 91.7069 19.06 92.2269 18.16C92.8869 17.02 92.8869 15.62 92.2269 14.48C91.7069 13.58 90.6469 12.64 89.0469 12.64H84.2269Z" fill="white"/>
</svg>
